<mxfile host="app.diagrams.net" modified="2022-08-08T17:50:19.494Z" agent="5.0 (Macintosh; Intel Mac OS X 10_15_7) AppleWebKit/605.1.15 (KHTML, like Gecko) Version/15.5 Safari/605.1.15" etag="zFNrsPvRkpK1amw9Xjd8" version="20.2.3" type="github">
  <diagram id="V6LxSPuGkYbUzcCR-6h-" name="Page-1">
    <mxGraphModel dx="1426" dy="825" grid="1" gridSize="10" guides="1" tooltips="1" connect="1" arrows="1" fold="1" page="1" pageScale="1" pageWidth="850" pageHeight="1100" math="0" shadow="0">
      <root>
        <mxCell id="0" />
        <mxCell id="1" parent="0" />
        <mxCell id="ryJT62KqQmYXrAtAmDXM-1" value="" style="aspect=fixed;perimeter=ellipsePerimeter;html=1;align=center;shadow=0;dashed=0;spacingTop=3;image;image=img/lib/active_directory/user_accounts.svg;" vertex="1" parent="1">
          <mxGeometry x="50" y="348.25" width="50" height="48.5" as="geometry" />
        </mxCell>
        <mxCell id="ryJT62KqQmYXrAtAmDXM-2" value="" style="outlineConnect=0;dashed=0;verticalLabelPosition=bottom;verticalAlign=top;align=center;html=1;shape=mxgraph.aws3.classic_load_balancer;fillColor=#F58534;gradientColor=none;" vertex="1" parent="1">
          <mxGeometry x="260" y="340" width="70" height="70" as="geometry" />
        </mxCell>
        <mxCell id="ryJT62KqQmYXrAtAmDXM-3" value="" style="outlineConnect=0;dashed=0;verticalLabelPosition=bottom;verticalAlign=top;align=center;html=1;shape=mxgraph.aws3.ec2;fillColor=#F58534;gradientColor=none;" vertex="1" parent="1">
          <mxGeometry x="641.75" y="240" width="48.25" height="60" as="geometry" />
        </mxCell>
        <mxCell id="ryJT62KqQmYXrAtAmDXM-4" value="" style="outlineConnect=0;dashed=0;verticalLabelPosition=bottom;verticalAlign=top;align=center;html=1;shape=mxgraph.aws3.ecs;fillColor=#F58534;gradientColor=none;" vertex="1" parent="1">
          <mxGeometry x="640" y="380" width="60" height="58.25" as="geometry" />
        </mxCell>
        <mxCell id="ryJT62KqQmYXrAtAmDXM-5" value="" style="outlineConnect=0;dashed=0;verticalLabelPosition=bottom;verticalAlign=top;align=center;html=1;shape=mxgraph.aws3.lambda_function;fillColor=#F58534;gradientColor=none;" vertex="1" parent="1">
          <mxGeometry x="640" y="460" width="60" height="50" as="geometry" />
        </mxCell>
        <mxCell id="ryJT62KqQmYXrAtAmDXM-6" value="" style="sketch=0;html=1;dashed=0;whitespace=wrap;fillColor=#2875E2;strokeColor=#ffffff;points=[[0.005,0.63,0],[0.1,0.2,0],[0.9,0.2,0],[0.5,0,0],[0.995,0.63,0],[0.72,0.99,0],[0.5,1,0],[0.28,0.99,0]];shape=mxgraph.kubernetes.icon;prIcon=pod" vertex="1" parent="1">
          <mxGeometry x="641.75" y="320" width="50" height="48" as="geometry" />
        </mxCell>
        <mxCell id="ryJT62KqQmYXrAtAmDXM-9" value="" style="endArrow=classic;html=1;rounded=0;" edge="1" parent="1">
          <mxGeometry relative="1" as="geometry">
            <mxPoint x="330" y="368.25" as="sourcePoint" />
            <mxPoint x="650" y="348.25" as="targetPoint" />
          </mxGeometry>
        </mxCell>
        <mxCell id="ryJT62KqQmYXrAtAmDXM-10" value="APP/PUT" style="edgeLabel;resizable=0;html=1;align=center;verticalAlign=middle;" connectable="0" vertex="1" parent="ryJT62KqQmYXrAtAmDXM-9">
          <mxGeometry relative="1" as="geometry" />
        </mxCell>
        <mxCell id="ryJT62KqQmYXrAtAmDXM-11" value="" style="endArrow=classic;html=1;rounded=0;" edge="1" parent="1">
          <mxGeometry relative="1" as="geometry">
            <mxPoint x="320" y="396.75" as="sourcePoint" />
            <mxPoint x="630" y="480" as="targetPoint" />
          </mxGeometry>
        </mxCell>
        <mxCell id="ryJT62KqQmYXrAtAmDXM-12" value="APP/GET" style="edgeLabel;resizable=0;html=1;align=center;verticalAlign=middle;" connectable="0" vertex="1" parent="ryJT62KqQmYXrAtAmDXM-11">
          <mxGeometry relative="1" as="geometry" />
        </mxCell>
        <mxCell id="ryJT62KqQmYXrAtAmDXM-13" value="" style="endArrow=classic;html=1;rounded=0;" edge="1" parent="1">
          <mxGeometry relative="1" as="geometry">
            <mxPoint x="330" y="380" as="sourcePoint" />
            <mxPoint x="630" y="420" as="targetPoint" />
          </mxGeometry>
        </mxCell>
        <mxCell id="ryJT62KqQmYXrAtAmDXM-14" value="APP/POST" style="edgeLabel;resizable=0;html=1;align=center;verticalAlign=middle;" connectable="0" vertex="1" parent="ryJT62KqQmYXrAtAmDXM-13">
          <mxGeometry relative="1" as="geometry" />
        </mxCell>
        <mxCell id="ryJT62KqQmYXrAtAmDXM-15" value="" style="endArrow=classic;html=1;rounded=0;" edge="1" parent="1">
          <mxGeometry relative="1" as="geometry">
            <mxPoint x="320" y="354.75" as="sourcePoint" />
            <mxPoint x="620" y="296.5" as="targetPoint" />
          </mxGeometry>
        </mxCell>
        <mxCell id="ryJT62KqQmYXrAtAmDXM-16" value="APP/DELETE" style="edgeLabel;resizable=0;html=1;align=center;verticalAlign=middle;" connectable="0" vertex="1" parent="ryJT62KqQmYXrAtAmDXM-15">
          <mxGeometry relative="1" as="geometry" />
        </mxCell>
        <mxCell id="ryJT62KqQmYXrAtAmDXM-17" value="" style="outlineConnect=0;dashed=0;verticalLabelPosition=bottom;verticalAlign=top;align=center;html=1;shape=mxgraph.aws3.ec2;fillColor=#F58534;gradientColor=none;" vertex="1" parent="1">
          <mxGeometry x="700" y="243.5" width="46.5" height="53" as="geometry" />
        </mxCell>
        <mxCell id="ryJT62KqQmYXrAtAmDXM-18" value="" style="endArrow=classic;html=1;rounded=0;" edge="1" parent="1">
          <mxGeometry relative="1" as="geometry">
            <mxPoint x="110" y="372" as="sourcePoint" />
            <mxPoint x="240" y="372" as="targetPoint" />
          </mxGeometry>
        </mxCell>
        <mxCell id="ryJT62KqQmYXrAtAmDXM-19" value="APP" style="edgeLabel;resizable=0;html=1;align=center;verticalAlign=middle;" connectable="0" vertex="1" parent="ryJT62KqQmYXrAtAmDXM-18">
          <mxGeometry relative="1" as="geometry" />
        </mxCell>
        <mxCell id="ryJT62KqQmYXrAtAmDXM-20" value="Auto Scaling" style="text;html=1;strokeColor=none;fillColor=none;align=center;verticalAlign=middle;whiteSpace=wrap;rounded=0;" vertex="1" parent="1">
          <mxGeometry x="660" y="200" width="60" height="30" as="geometry" />
        </mxCell>
        <mxCell id="ryJT62KqQmYXrAtAmDXM-24" style="edgeStyle=orthogonalEdgeStyle;rounded=0;orthogonalLoop=1;jettySize=auto;html=1;entryX=0.5;entryY=1;entryDx=0;entryDy=0;entryPerimeter=0;" edge="1" parent="1" source="ryJT62KqQmYXrAtAmDXM-21" target="ryJT62KqQmYXrAtAmDXM-2">
          <mxGeometry relative="1" as="geometry" />
        </mxCell>
        <mxCell id="ryJT62KqQmYXrAtAmDXM-21" value="" style="sketch=0;points=[[0,0,0],[0.25,0,0],[0.5,0,0],[0.75,0,0],[1,0,0],[0,1,0],[0.25,1,0],[0.5,1,0],[0.75,1,0],[1,1,0],[0,0.25,0],[0,0.5,0],[0,0.75,0],[1,0.25,0],[1,0.5,0],[1,0.75,0]];outlineConnect=0;fontColor=#232F3E;gradientColor=#945DF2;gradientDirection=north;fillColor=#5A30B5;strokeColor=#ffffff;dashed=0;verticalLabelPosition=bottom;verticalAlign=top;align=center;html=1;fontSize=12;fontStyle=0;aspect=fixed;shape=mxgraph.aws4.resourceIcon;resIcon=mxgraph.aws4.route_53;" vertex="1" parent="1">
          <mxGeometry x="256" y="460" width="78" height="78" as="geometry" />
        </mxCell>
        <mxCell id="ryJT62KqQmYXrAtAmDXM-22" value="" style="endArrow=classic;html=1;rounded=0;entryX=0;entryY=0.5;entryDx=0;entryDy=0;entryPerimeter=0;" edge="1" parent="1" target="ryJT62KqQmYXrAtAmDXM-21">
          <mxGeometry relative="1" as="geometry">
            <mxPoint x="90" y="380" as="sourcePoint" />
            <mxPoint x="190" y="380" as="targetPoint" />
          </mxGeometry>
        </mxCell>
        <mxCell id="ryJT62KqQmYXrAtAmDXM-23" value="Website" style="edgeLabel;resizable=0;html=1;align=center;verticalAlign=middle;" connectable="0" vertex="1" parent="ryJT62KqQmYXrAtAmDXM-22">
          <mxGeometry relative="1" as="geometry" />
        </mxCell>
      </root>
    </mxGraphModel>
  </diagram>
</mxfile>
